<svg width="123" height="33" viewBox="0 0 123 33" fill="none" xmlns="http://www.w3.org/2000/svg">
<path d="M45.525 25.15C44.2583 25.15 43.0583 24.95 41.925 24.55C40.8083 24.1333 39.9083 23.5833 39.225 22.9L40.1 21.475C40.6667 22.0583 41.425 22.5417 42.375 22.925C43.3417 23.3083 44.3917 23.5 45.525 23.5C46.975 23.5 48.0833 23.1833 48.85 22.55C49.6333 21.9167 50.025 21.0667 50.025 20C50.025 18.9333 49.6417 18.0833 48.875 17.45C48.125 16.8167 46.9333 16.5 45.3 16.5H44.05V15.175L49.45 8.4L49.7 9.1H39.95V7.5H51.2V8.775L45.8 15.55L44.925 14.975H45.6C47.7 14.975 49.2667 15.4417 50.3 16.375C51.35 17.3083 51.875 18.5083 51.875 19.975C51.875 20.9583 51.6417 21.8417 51.175 22.625C50.7083 23.4083 50 24.025 49.05 24.475C48.1167 24.925 46.9417 25.15 45.525 25.15ZM55.5863 25V11.875H57.3613V25H55.5863ZM56.4863 8.975C56.1197 8.975 55.8113 8.85 55.5613 8.6C55.3113 8.35 55.1863 8.05 55.1863 7.7C55.1863 7.35 55.3113 7.05833 55.5613 6.825C55.8113 6.575 56.1197 6.45 56.4863 6.45C56.853 6.45 57.1613 6.56667 57.4113 6.8C57.6613 7.03333 57.7863 7.325 57.7863 7.675C57.7863 8.04167 57.6613 8.35 57.4113 8.6C57.178 8.85 56.8697 8.975 56.4863 8.975ZM65.6582 25.114C64.6702 25.114 63.7202 24.9557 62.8082 24.639C61.9089 24.3097 61.2122 23.8917 60.7182 23.385L61.2692 22.302C61.7379 22.758 62.3649 23.1443 63.1502 23.461C63.9482 23.765 64.7842 23.917 65.6582 23.917C66.4942 23.917 67.1719 23.8157 67.6912 23.613C68.2232 23.3977 68.6095 23.1127 68.8502 22.758C69.1035 22.4033 69.2302 22.0107 69.2302 21.58C69.2302 21.0607 69.0782 20.6427 68.7742 20.326C68.4829 20.0093 68.0965 19.7623 67.6152 19.585C67.1339 19.395 66.6019 19.2303 66.0192 19.091C65.4365 18.9517 64.8539 18.806 64.2712 18.654C63.6885 18.4893 63.1502 18.274 62.6562 18.008C62.1749 17.742 61.7822 17.3937 61.4782 16.963C61.1869 16.5197 61.0412 15.9433 61.0412 15.234C61.0412 14.5753 61.2122 13.9737 61.5542 13.429C61.9089 12.8717 62.4472 12.4283 63.1692 12.099C63.8912 11.757 64.8159 11.586 65.9432 11.586C66.6905 11.586 67.4315 11.6937 68.1662 11.909C68.9009 12.1117 69.5342 12.3967 70.0662 12.764L69.5912 13.885C69.0212 13.505 68.4132 13.2263 67.7672 13.049C67.1339 12.8717 66.5195 12.783 65.9242 12.783C65.1262 12.783 64.4675 12.8907 63.9482 13.106C63.4289 13.3213 63.0425 13.6127 62.7892 13.98C62.5485 14.3347 62.4282 14.74 62.4282 15.196C62.4282 15.7153 62.5739 16.1333 62.8652 16.45C63.1692 16.7667 63.5619 17.0137 64.0432 17.191C64.5372 17.3683 65.0755 17.5267 65.6582 17.666C66.2409 17.8053 66.8172 17.9573 67.3872 18.122C67.9699 18.2867 68.5019 18.502 68.9832 18.768C69.4772 19.0213 69.8699 19.3633 70.1612 19.794C70.4652 20.2247 70.6172 20.7883 70.6172 21.485C70.6172 22.131 70.4399 22.7327 70.0852 23.29C69.7305 23.8347 69.1859 24.278 68.4512 24.62C67.7292 24.9493 66.7982 25.114 65.6582 25.114ZM76.5496 25.095C75.6123 25.095 74.8903 24.8417 74.3836 24.335C73.877 23.8283 73.6236 23.1127 73.6236 22.188V12.821H74.9726V22.112C74.9726 22.6947 75.1183 23.1443 75.4096 23.461C75.7136 23.7777 76.1443 23.936 76.7016 23.936C77.297 23.936 77.791 23.765 78.1836 23.423L78.6586 24.392C78.3926 24.6327 78.0696 24.81 77.6896 24.924C77.3223 25.038 76.9423 25.095 76.5496 25.095ZM71.8376 16.146V15.025H78.0126V16.146H71.8376ZM85.2374 25.095C84.3887 25.095 83.6477 24.9367 83.0144 24.62C82.3811 24.3033 81.8871 23.8283 81.5324 23.195C81.1904 22.5617 81.0194 21.77 81.0194 20.82V15.025H82.3684V20.668C82.3684 21.732 82.6281 22.5363 83.1474 23.081C83.6794 23.613 84.4204 23.879 85.3704 23.879C86.0671 23.879 86.6687 23.7397 87.1754 23.461C87.6947 23.1697 88.0874 22.7517 88.3534 22.207C88.6321 21.6623 88.7714 21.01 88.7714 20.25V15.025H90.1204V25H88.8284V22.264L89.0374 22.758C88.7207 23.4927 88.2267 24.069 87.5554 24.487C86.8967 24.8923 86.1241 25.095 85.2374 25.095ZM97.851 25.095C96.901 25.095 96.046 24.8797 95.286 24.449C94.5387 24.0183 93.9497 23.423 93.519 22.663C93.0884 21.8903 92.873 21.0037 92.873 20.003C92.873 18.9897 93.0884 18.103 93.519 17.343C93.9497 16.583 94.5387 15.994 95.286 15.576C96.046 15.1453 96.901 14.93 97.851 14.93C98.725 14.93 99.504 15.1263 100.188 15.519C100.885 15.9117 101.436 16.488 101.841 17.248C102.259 17.9953 102.468 18.9137 102.468 20.003C102.468 21.0797 102.265 21.998 101.86 22.758C101.455 23.518 100.904 24.1007 100.207 24.506C99.523 24.8987 98.7377 25.095 97.851 25.095ZM97.946 23.898C98.6554 23.898 99.2887 23.7397 99.846 23.423C100.416 23.0937 100.859 22.6377 101.176 22.055C101.505 21.4597 101.67 20.7757 101.67 20.003C101.67 19.2177 101.505 18.5337 101.176 17.951C100.859 17.3683 100.416 16.9187 99.846 16.602C99.2887 16.2727 98.6554 16.108 97.946 16.108C97.2494 16.108 96.6224 16.2727 96.065 16.602C95.5077 16.9187 95.0644 17.3683 94.735 17.951C94.4057 18.5337 94.241 19.2177 94.241 20.003C94.241 20.7757 94.4057 21.4597 94.735 22.055C95.0644 22.6377 95.5077 23.0937 96.065 23.423C96.6224 23.7397 97.2494 23.898 97.946 23.898ZM101.708 25V21.998L101.841 19.984L101.651 17.97V10.902H103V25H101.708ZM106.757 25V15.025H108.106V25H106.757ZM107.441 12.821C107.162 12.821 106.928 12.726 106.738 12.536C106.548 12.346 106.453 12.118 106.453 11.852C106.453 11.586 106.548 11.3643 106.738 11.187C106.928 10.997 107.162 10.902 107.441 10.902C107.72 10.902 107.954 10.9907 108.144 11.168C108.334 11.3453 108.429 11.567 108.429 11.833C108.429 12.1117 108.334 12.346 108.144 12.536C107.967 12.726 107.732 12.821 107.441 12.821ZM115.926 25.095C114.963 25.095 114.095 24.8797 113.323 24.449C112.563 24.0057 111.961 23.404 111.518 22.644C111.074 21.8713 110.853 20.991 110.853 20.003C110.853 19.0023 111.074 18.122 111.518 17.362C111.961 16.602 112.563 16.0067 113.323 15.576C114.083 15.1453 114.95 14.93 115.926 14.93C116.914 14.93 117.788 15.1453 118.548 15.576C119.32 16.0067 119.922 16.602 120.353 17.362C120.796 18.122 121.018 19.0023 121.018 20.003C121.018 20.991 120.796 21.8713 120.353 22.644C119.922 23.404 119.32 24.0057 118.548 24.449C117.775 24.8797 116.901 25.095 115.926 25.095ZM115.926 23.898C116.648 23.898 117.287 23.7397 117.845 23.423C118.402 23.0937 118.839 22.6377 119.156 22.055C119.485 21.4597 119.65 20.7757 119.65 20.003C119.65 19.2177 119.485 18.5337 119.156 17.951C118.839 17.3683 118.402 16.9187 117.845 16.602C117.287 16.2727 116.654 16.108 115.945 16.108C115.235 16.108 114.602 16.2727 114.045 16.602C113.487 16.9187 113.044 17.3683 112.715 17.951C112.385 18.5337 112.221 19.2177 112.221 20.003C112.221 20.7757 112.385 21.4597 112.715 22.055C113.044 22.6377 113.487 23.0937 114.045 23.423C114.602 23.7397 115.229 23.898 115.926 23.898Z" fill="black"/>
<path d="M16.005 7.36797C16.005 3.29873 19.3037 0 23.373 0H30.7409V7.36797C30.7409 11.4372 27.4422 14.7359 23.373 14.7359C19.3037 14.7359 16.005 11.4372 16.005 7.36797Z" fill="url(#paint0_linear_24_11)"/>
<path d="M23.3729 32.4131C19.3036 32.4131 16.0049 29.1143 16.0049 25.0451V17.6771H23.3729C27.4421 17.6771 30.7408 20.9759 30.7408 25.0451C30.7408 29.1143 27.4421 32.4131 23.3729 32.4131Z" fill="url(#paint1_linear_24_11)"/>
<path d="M13.6834 15.3881C13.6834 7.21135 7.5571 0.582878 0 0.582878V24.7573C0 28.8456 3.06312 32.1599 6.84178 32.1599C10.6203 32.1599 13.6834 28.8456 13.6834 24.7573V15.3881Z" fill="url(#paint2_linear_24_11)"/>
<defs>
<linearGradient id="paint0_linear_24_11" x1="33" y1="-4.5" x2="18" y2="13" gradientUnits="userSpaceOnUse">
<stop stop-color="#819697" stop-opacity="0"/>
<stop offset="1" stop-color="#819697"/>
</linearGradient>
<linearGradient id="paint1_linear_24_11" x1="23.3729" y1="17.6771" x2="23.3729" y2="32.4131" gradientUnits="userSpaceOnUse">
<stop/>
<stop offset="1" stop-color="#777777"/>
</linearGradient>
<linearGradient id="paint2_linear_24_11" x1="6.84168" y1="0.582878" x2="6.84168" y2="32.1599" gradientUnits="userSpaceOnUse">
<stop/>
<stop offset="1" stop-color="#777777"/>
</linearGradient>
</defs>
</svg>
